# xmcd CD database file
#
# Track frame offsets:
#	150
#	24194
#	39665
#	56737
#	73989
#	87191
#	106613
#	127267
#	147336
#	161081
#	188820
#	221696
#
# Disc length: 3070 seconds
#
# Revision: 0
# Processed by: cddbd v1.5.2PL0 Copyright (c) Steve Scherf et al.
# Submitted via: CDex 1.70beta2
#
DISCID=af0bfc0c
DTITLE=Jared Stewart - Indian Summer
DYEAR=2002
DGENRE=Blues
TTITLE0=Sweet Home Chicago
TTITLE1=Hell Hound On My Trail
TTITLE2=Every Time I Roll The Dice
TTITLE3=Reflections
TTITLE4=Black Cat Bone
TTITLE5=Just My Imagination (Running Away With Me)
TTITLE6=Indian Summer
TTITLE7=High Gate Shuffle
TTITLE8=I Need You
TTITLE9=Roadhouse Blues
TTITLE10=Uptown Jam
TTITLE11=I Need You (Solo)
EXTD=YEAR: 2002
EXTT0=
EXTT1=
EXTT2=
EXTT3=
EXTT4=
EXTT5=
EXTT6=
EXTT7=
EXTT8=
EXTT9=
EXTT10=
EXTT11=
PLAYORDER=
